<?xml version="1.0" encoding="utf-8" standalone="no"?>
<!DOCTYPE svg PUBLIC "-//W3C//DTD SVG 1.1//EN"
  "http://www.w3.org/Graphics/SVG/1.1/DTD/svg11.dtd">
<svg height="360pt" version="1.1" viewBox="0 0 360 360" width="360pt" xmlns="http://www.w3.org/2000/svg" xmlns:xlink="http://www.w3.org/1999/xlink">
 <metadata>
  <rdf:RDF xmlns:cc="http://creativecommons.org/ns#" xmlns:dc="http://purl.org/dc/elements/1.1/" xmlns:rdf="http://www.w3.org/1999/02/22-rdf-syntax-ns#">
   <cc:Work>
    <dc:type rdf:resource="http://purl.org/dc/dcmitype/StillImage"/>
    <dc:date>2021-07-15T13:56:53.584601</dc:date>
    <dc:format>image/svg+xml</dc:format>
    <dc:creator>
     <cc:Agent>
      <dc:title>Matplotlib v3.4.2, https://matplotlib.org/</dc:title>
     </cc:Agent>
    </dc:creator>
   </cc:Work>
  </rdf:RDF>
 </metadata>
 <defs>
  <style type="text/css">*{stroke-linecap:butt;stroke-linejoin:round;}</style>
 </defs>
 <g id="figure_1">
  <g id="patch_1">
   <path d="M 0 360 
L 360 360 
L 360 0 
L 0 0 
z
" style="fill:#ffffff;"/>
  </g>
  <g id="axes_1">
   <g id="patch_2">
    <path d="M 58.085 313.493125 
L 347.04 313.493125 
L 347.04 26.96 
L 58.085 26.96 
z
" style="fill:#eaeaf2;"/>
   </g>
   <g id="matplotlib.axis_1">
    <g id="xtick_1">
     <g id="line2d_1">
      <path clip-path="url(#p34be97e1ba)" d="M 71.219318 313.493125 
L 71.219318 26.96 
" style="fill:none;stroke:#ffffff;stroke-linecap:round;"/>
     </g>
     <g id="text_1">
      <!-- 0 -->
      <g style="fill:#262626;" transform="translate(68.160803 330.866719)scale(0.11 -0.11)">
       <defs>
        <path d="M 266 2259 
Q 266 3072 433 3567 
Q 600 4063 929 4331 
Q 1259 4600 1759 4600 
Q 2128 4600 2406 4451 
Q 2684 4303 2865 4023 
Q 3047 3744 3150 3342 
Q 3253 2941 3253 2259 
Q 3253 1453 3087 958 
Q 2922 463 2592 192 
Q 2263 -78 1759 -78 
Q 1097 -78 719 397 
Q 266 969 266 2259 
z
M 844 2259 
Q 844 1131 1108 757 
Q 1372 384 1759 384 
Q 2147 384 2411 759 
Q 2675 1134 2675 2259 
Q 2675 3391 2411 3762 
Q 2147 4134 1753 4134 
Q 1366 4134 1134 3806 
Q 844 3388 844 2259 
z
" id="ArialMT-30" transform="scale(0.015625)"/>
       </defs>
       <use xlink:href="#ArialMT-30"/>
      </g>
     </g>
    </g>
    <g id="xtick_2">
     <g id="line2d_2">
      <path clip-path="url(#p34be97e1ba)" d="M 115.000379 313.493125 
L 115.000379 26.96 
" style="fill:none;stroke:#ffffff;stroke-linecap:round;"/>
     </g>
     <g id="text_2">
      <!-- 5 -->
      <g style="fill:#262626;" transform="translate(111.941863 330.866719)scale(0.11 -0.11)">
       <defs>
        <path d="M 266 1200 
L 856 1250 
Q 922 819 1161 601 
Q 1400 384 1738 384 
Q 2144 384 2425 690 
Q 2706 997 2706 1503 
Q 2706 1984 2436 2262 
Q 2166 2541 1728 2541 
Q 1456 2541 1237 2417 
Q 1019 2294 894 2097 
L 366 2166 
L 809 4519 
L 3088 4519 
L 3088 3981 
L 1259 3981 
L 1013 2750 
Q 1425 3038 1878 3038 
Q 2478 3038 2890 2622 
Q 3303 2206 3303 1553 
Q 3303 931 2941 478 
Q 2500 -78 1738 -78 
Q 1113 -78 717 272 
Q 322 622 266 1200 
z
" id="ArialMT-35" transform="scale(0.015625)"/>
       </defs>
       <use xlink:href="#ArialMT-35"/>
      </g>
     </g>
    </g>
    <g id="xtick_3">
     <g id="line2d_3">
      <path clip-path="url(#p34be97e1ba)" d="M 158.781439 313.493125 
L 158.781439 26.96 
" style="fill:none;stroke:#ffffff;stroke-linecap:round;"/>
     </g>
     <g id="text_3">
      <!-- 10 -->
      <g style="fill:#262626;" transform="translate(152.664408 330.866719)scale(0.11 -0.11)">
       <defs>
        <path d="M 2384 0 
L 1822 0 
L 1822 3584 
Q 1619 3391 1289 3197 
Q 959 3003 697 2906 
L 697 3450 
Q 1169 3672 1522 3987 
Q 1875 4303 2022 4600 
L 2384 4600 
L 2384 0 
z
" id="ArialMT-31" transform="scale(0.015625)"/>
       </defs>
       <use xlink:href="#ArialMT-31"/>
       <use x="55.615234" xlink:href="#ArialMT-30"/>
      </g>
     </g>
    </g>
    <g id="xtick_4">
     <g id="line2d_4">
      <path clip-path="url(#p34be97e1ba)" d="M 202.5625 313.493125 
L 202.5625 26.96 
" style="fill:none;stroke:#ffffff;stroke-linecap:round;"/>
     </g>
     <g id="text_4">
      <!-- 15 -->
      <g style="fill:#262626;" transform="translate(196.445469 330.866719)scale(0.11 -0.11)">
       <use xlink:href="#ArialMT-31"/>
       <use x="55.615234" xlink:href="#ArialMT-35"/>
      </g>
     </g>
    </g>
    <g id="xtick_5">
     <g id="line2d_5">
      <path clip-path="url(#p34be97e1ba)" d="M 246.343561 313.493125 
L 246.343561 26.96 
" style="fill:none;stroke:#ffffff;stroke-linecap:round;"/>
     </g>
     <g id="text_5">
      <!-- 20 -->
      <g style="fill:#262626;" transform="translate(240.226529 330.866719)scale(0.11 -0.11)">
       <defs>
        <path d="M 3222 541 
L 3222 0 
L 194 0 
Q 188 203 259 391 
Q 375 700 629 1000 
Q 884 1300 1366 1694 
Q 2113 2306 2375 2664 
Q 2638 3022 2638 3341 
Q 2638 3675 2398 3904 
Q 2159 4134 1775 4134 
Q 1369 4134 1125 3890 
Q 881 3647 878 3216 
L 300 3275 
Q 359 3922 746 4261 
Q 1134 4600 1788 4600 
Q 2447 4600 2831 4234 
Q 3216 3869 3216 3328 
Q 3216 3053 3103 2787 
Q 2991 2522 2730 2228 
Q 2469 1934 1863 1422 
Q 1356 997 1212 845 
Q 1069 694 975 541 
L 3222 541 
z
" id="ArialMT-32" transform="scale(0.015625)"/>
       </defs>
       <use xlink:href="#ArialMT-32"/>
       <use x="55.615234" xlink:href="#ArialMT-30"/>
      </g>
     </g>
    </g>
    <g id="xtick_6">
     <g id="line2d_6">
      <path clip-path="url(#p34be97e1ba)" d="M 290.124621 313.493125 
L 290.124621 26.96 
" style="fill:none;stroke:#ffffff;stroke-linecap:round;"/>
     </g>
     <g id="text_6">
      <!-- 25 -->
      <g style="fill:#262626;" transform="translate(284.00759 330.866719)scale(0.11 -0.11)">
       <use xlink:href="#ArialMT-32"/>
       <use x="55.615234" xlink:href="#ArialMT-35"/>
      </g>
     </g>
    </g>
    <g id="xtick_7">
     <g id="line2d_7">
      <path clip-path="url(#p34be97e1ba)" d="M 333.905682 313.493125 
L 333.905682 26.96 
" style="fill:none;stroke:#ffffff;stroke-linecap:round;"/>
     </g>
     <g id="text_7">
      <!-- 30 -->
      <g style="fill:#262626;" transform="translate(327.788651 330.866719)scale(0.11 -0.11)">
       <defs>
        <path d="M 269 1209 
L 831 1284 
Q 928 806 1161 595 
Q 1394 384 1728 384 
Q 2125 384 2398 659 
Q 2672 934 2672 1341 
Q 2672 1728 2419 1979 
Q 2166 2231 1775 2231 
Q 1616 2231 1378 2169 
L 1441 2663 
Q 1497 2656 1531 2656 
Q 1891 2656 2178 2843 
Q 2466 3031 2466 3422 
Q 2466 3731 2256 3934 
Q 2047 4138 1716 4138 
Q 1388 4138 1169 3931 
Q 950 3725 888 3313 
L 325 3413 
Q 428 3978 793 4289 
Q 1159 4600 1703 4600 
Q 2078 4600 2393 4439 
Q 2709 4278 2876 4000 
Q 3044 3722 3044 3409 
Q 3044 3113 2884 2869 
Q 2725 2625 2413 2481 
Q 2819 2388 3044 2092 
Q 3269 1797 3269 1353 
Q 3269 753 2831 336 
Q 2394 -81 1725 -81 
Q 1122 -81 723 278 
Q 325 638 269 1209 
z
" id="ArialMT-33" transform="scale(0.015625)"/>
       </defs>
       <use xlink:href="#ArialMT-33"/>
       <use x="55.615234" xlink:href="#ArialMT-30"/>
      </g>
     </g>
    </g>
    <g id="text_8">
     <!-- Model Simulation Step -->
     <g style="fill:#262626;" transform="translate(142.533437 345.788594)scale(0.12 -0.12)">
      <defs>
       <path d="M 475 0 
L 475 4581 
L 1388 4581 
L 2472 1338 
Q 2622 884 2691 659 
Q 2769 909 2934 1394 
L 4031 4581 
L 4847 4581 
L 4847 0 
L 4263 0 
L 4263 3834 
L 2931 0 
L 2384 0 
L 1059 3900 
L 1059 0 
L 475 0 
z
" id="ArialMT-4d" transform="scale(0.015625)"/>
       <path d="M 213 1659 
Q 213 2581 725 3025 
Q 1153 3394 1769 3394 
Q 2453 3394 2887 2945 
Q 3322 2497 3322 1706 
Q 3322 1066 3130 698 
Q 2938 331 2570 128 
Q 2203 -75 1769 -75 
Q 1072 -75 642 372 
Q 213 819 213 1659 
z
M 791 1659 
Q 791 1022 1069 705 
Q 1347 388 1769 388 
Q 2188 388 2466 706 
Q 2744 1025 2744 1678 
Q 2744 2294 2464 2611 
Q 2184 2928 1769 2928 
Q 1347 2928 1069 2612 
Q 791 2297 791 1659 
z
" id="ArialMT-6f" transform="scale(0.015625)"/>
       <path d="M 2575 0 
L 2575 419 
Q 2259 -75 1647 -75 
Q 1250 -75 917 144 
Q 584 363 401 755 
Q 219 1147 219 1656 
Q 219 2153 384 2558 
Q 550 2963 881 3178 
Q 1213 3394 1622 3394 
Q 1922 3394 2156 3267 
Q 2391 3141 2538 2938 
L 2538 4581 
L 3097 4581 
L 3097 0 
L 2575 0 
z
M 797 1656 
Q 797 1019 1065 703 
Q 1334 388 1700 388 
Q 2069 388 2326 689 
Q 2584 991 2584 1609 
Q 2584 2291 2321 2609 
Q 2059 2928 1675 2928 
Q 1300 2928 1048 2622 
Q 797 2316 797 1656 
z
" id="ArialMT-64" transform="scale(0.015625)"/>
       <path d="M 2694 1069 
L 3275 997 
Q 3138 488 2766 206 
Q 2394 -75 1816 -75 
Q 1088 -75 661 373 
Q 234 822 234 1631 
Q 234 2469 665 2931 
Q 1097 3394 1784 3394 
Q 2450 3394 2872 2941 
Q 3294 2488 3294 1666 
Q 3294 1616 3291 1516 
L 816 1516 
Q 847 969 1125 678 
Q 1403 388 1819 388 
Q 2128 388 2347 550 
Q 2566 713 2694 1069 
z
M 847 1978 
L 2700 1978 
Q 2663 2397 2488 2606 
Q 2219 2931 1791 2931 
Q 1403 2931 1139 2672 
Q 875 2413 847 1978 
z
" id="ArialMT-65" transform="scale(0.015625)"/>
       <path d="M 409 0 
L 409 4581 
L 972 4581 
L 972 0 
L 409 0 
z
" id="ArialMT-6c" transform="scale(0.015625)"/>
       <path id="ArialMT-20" transform="scale(0.015625)"/>
       <path d="M 288 1472 
L 859 1522 
Q 900 1178 1048 958 
Q 1197 738 1509 602 
Q 1822 466 2213 466 
Q 2559 466 2825 569 
Q 3091 672 3220 851 
Q 3350 1031 3350 1244 
Q 3350 1459 3225 1620 
Q 3100 1781 2813 1891 
Q 2628 1963 1997 2114 
Q 1366 2266 1113 2400 
Q 784 2572 623 2826 
Q 463 3081 463 3397 
Q 463 3744 659 4045 
Q 856 4347 1234 4503 
Q 1613 4659 2075 4659 
Q 2584 4659 2973 4495 
Q 3363 4331 3572 4012 
Q 3781 3694 3797 3291 
L 3216 3247 
Q 3169 3681 2898 3903 
Q 2628 4125 2100 4125 
Q 1550 4125 1298 3923 
Q 1047 3722 1047 3438 
Q 1047 3191 1225 3031 
Q 1400 2872 2139 2705 
Q 2878 2538 3153 2413 
Q 3553 2228 3743 1945 
Q 3934 1663 3934 1294 
Q 3934 928 3725 604 
Q 3516 281 3123 101 
Q 2731 -78 2241 -78 
Q 1619 -78 1198 103 
Q 778 284 539 648 
Q 300 1013 288 1472 
z
" id="ArialMT-53" transform="scale(0.015625)"/>
       <path d="M 425 3934 
L 425 4581 
L 988 4581 
L 988 3934 
L 425 3934 
z
M 425 0 
L 425 3319 
L 988 3319 
L 988 0 
L 425 0 
z
" id="ArialMT-69" transform="scale(0.015625)"/>
       <path d="M 422 0 
L 422 3319 
L 925 3319 
L 925 2853 
Q 1081 3097 1340 3245 
Q 1600 3394 1931 3394 
Q 2300 3394 2536 3241 
Q 2772 3088 2869 2813 
Q 3263 3394 3894 3394 
Q 4388 3394 4653 3120 
Q 4919 2847 4919 2278 
L 4919 0 
L 4359 0 
L 4359 2091 
Q 4359 2428 4304 2576 
Q 4250 2725 4106 2815 
Q 3963 2906 3769 2906 
Q 3419 2906 3187 2673 
Q 2956 2441 2956 1928 
L 2956 0 
L 2394 0 
L 2394 2156 
Q 2394 2531 2256 2718 
Q 2119 2906 1806 2906 
Q 1569 2906 1367 2781 
Q 1166 2656 1075 2415 
Q 984 2175 984 1722 
L 984 0 
L 422 0 
z
" id="ArialMT-6d" transform="scale(0.015625)"/>
       <path d="M 2597 0 
L 2597 488 
Q 2209 -75 1544 -75 
Q 1250 -75 995 37 
Q 741 150 617 320 
Q 494 491 444 738 
Q 409 903 409 1263 
L 409 3319 
L 972 3319 
L 972 1478 
Q 972 1038 1006 884 
Q 1059 663 1231 536 
Q 1403 409 1656 409 
Q 1909 409 2131 539 
Q 2353 669 2445 892 
Q 2538 1116 2538 1541 
L 2538 3319 
L 3100 3319 
L 3100 0 
L 2597 0 
z
" id="ArialMT-75" transform="scale(0.015625)"/>
       <path d="M 2588 409 
Q 2275 144 1986 34 
Q 1697 -75 1366 -75 
Q 819 -75 525 192 
Q 231 459 231 875 
Q 231 1119 342 1320 
Q 453 1522 633 1644 
Q 813 1766 1038 1828 
Q 1203 1872 1538 1913 
Q 2219 1994 2541 2106 
Q 2544 2222 2544 2253 
Q 2544 2597 2384 2738 
Q 2169 2928 1744 2928 
Q 1347 2928 1158 2789 
Q 969 2650 878 2297 
L 328 2372 
Q 403 2725 575 2942 
Q 747 3159 1072 3276 
Q 1397 3394 1825 3394 
Q 2250 3394 2515 3294 
Q 2781 3194 2906 3042 
Q 3031 2891 3081 2659 
Q 3109 2516 3109 2141 
L 3109 1391 
Q 3109 606 3145 398 
Q 3181 191 3288 0 
L 2700 0 
Q 2613 175 2588 409 
z
M 2541 1666 
Q 2234 1541 1622 1453 
Q 1275 1403 1131 1340 
Q 988 1278 909 1158 
Q 831 1038 831 891 
Q 831 666 1001 516 
Q 1172 366 1500 366 
Q 1825 366 2078 508 
Q 2331 650 2450 897 
Q 2541 1088 2541 1459 
L 2541 1666 
z
" id="ArialMT-61" transform="scale(0.015625)"/>
       <path d="M 1650 503 
L 1731 6 
Q 1494 -44 1306 -44 
Q 1000 -44 831 53 
Q 663 150 594 308 
Q 525 466 525 972 
L 525 2881 
L 113 2881 
L 113 3319 
L 525 3319 
L 525 4141 
L 1084 4478 
L 1084 3319 
L 1650 3319 
L 1650 2881 
L 1084 2881 
L 1084 941 
Q 1084 700 1114 631 
Q 1144 563 1211 522 
Q 1278 481 1403 481 
Q 1497 481 1650 503 
z
" id="ArialMT-74" transform="scale(0.015625)"/>
       <path d="M 422 0 
L 422 3319 
L 928 3319 
L 928 2847 
Q 1294 3394 1984 3394 
Q 2284 3394 2536 3286 
Q 2788 3178 2913 3003 
Q 3038 2828 3088 2588 
Q 3119 2431 3119 2041 
L 3119 0 
L 2556 0 
L 2556 2019 
Q 2556 2363 2490 2533 
Q 2425 2703 2258 2804 
Q 2091 2906 1866 2906 
Q 1506 2906 1245 2678 
Q 984 2450 984 1813 
L 984 0 
L 422 0 
z
" id="ArialMT-6e" transform="scale(0.015625)"/>
       <path d="M 422 -1272 
L 422 3319 
L 934 3319 
L 934 2888 
Q 1116 3141 1344 3267 
Q 1572 3394 1897 3394 
Q 2322 3394 2647 3175 
Q 2972 2956 3137 2557 
Q 3303 2159 3303 1684 
Q 3303 1175 3120 767 
Q 2938 359 2589 142 
Q 2241 -75 1856 -75 
Q 1575 -75 1351 44 
Q 1128 163 984 344 
L 984 -1272 
L 422 -1272 
z
M 931 1641 
Q 931 1000 1190 694 
Q 1450 388 1819 388 
Q 2194 388 2461 705 
Q 2728 1022 2728 1688 
Q 2728 2322 2467 2637 
Q 2206 2953 1844 2953 
Q 1484 2953 1207 2617 
Q 931 2281 931 1641 
z
" id="ArialMT-70" transform="scale(0.015625)"/>
      </defs>
      <use xlink:href="#ArialMT-4d"/>
      <use x="83.300781" xlink:href="#ArialMT-6f"/>
      <use x="138.916016" xlink:href="#ArialMT-64"/>
      <use x="194.53125" xlink:href="#ArialMT-65"/>
      <use x="250.146484" xlink:href="#ArialMT-6c"/>
      <use x="272.363281" xlink:href="#ArialMT-20"/>
      <use x="300.146484" xlink:href="#ArialMT-53"/>
      <use x="366.845703" xlink:href="#ArialMT-69"/>
      <use x="389.0625" xlink:href="#ArialMT-6d"/>
      <use x="472.363281" xlink:href="#ArialMT-75"/>
      <use x="527.978516" xlink:href="#ArialMT-6c"/>
      <use x="550.195312" xlink:href="#ArialMT-61"/>
      <use x="605.810547" xlink:href="#ArialMT-74"/>
      <use x="633.59375" xlink:href="#ArialMT-69"/>
      <use x="655.810547" xlink:href="#ArialMT-6f"/>
      <use x="711.425781" xlink:href="#ArialMT-6e"/>
      <use x="767.041016" xlink:href="#ArialMT-20"/>
      <use x="794.824219" xlink:href="#ArialMT-53"/>
      <use x="861.523438" xlink:href="#ArialMT-74"/>
      <use x="889.306641" xlink:href="#ArialMT-65"/>
      <use x="944.921875" xlink:href="#ArialMT-70"/>
     </g>
    </g>
   </g>
   <g id="matplotlib.axis_2">
    <g id="ytick_1">
     <g id="line2d_8">
      <path clip-path="url(#p34be97e1ba)" d="M 58.085 300.051765 
L 347.04 300.051765 
" style="fill:none;stroke:#ffffff;stroke-linecap:round;"/>
     </g>
     <g id="text_9">
      <!-- 0.50 -->
      <g style="fill:#262626;" transform="translate(27.177969 303.988562)scale(0.11 -0.11)">
       <defs>
        <path d="M 581 0 
L 581 641 
L 1222 641 
L 1222 0 
L 581 0 
z
" id="ArialMT-2e" transform="scale(0.015625)"/>
       </defs>
       <use xlink:href="#ArialMT-30"/>
       <use x="55.615234" xlink:href="#ArialMT-2e"/>
       <use x="83.398438" xlink:href="#ArialMT-35"/>
       <use x="139.013672" xlink:href="#ArialMT-30"/>
      </g>
     </g>
    </g>
    <g id="ytick_2">
     <g id="line2d_9">
      <path clip-path="url(#p34be97e1ba)" d="M 58.085 265.745838 
L 347.04 265.745838 
" style="fill:none;stroke:#ffffff;stroke-linecap:round;"/>
     </g>
     <g id="text_10">
      <!-- 0.55 -->
      <g style="fill:#262626;" transform="translate(27.177969 269.682635)scale(0.11 -0.11)">
       <use xlink:href="#ArialMT-30"/>
       <use x="55.615234" xlink:href="#ArialMT-2e"/>
       <use x="83.398438" xlink:href="#ArialMT-35"/>
       <use x="139.013672" xlink:href="#ArialMT-35"/>
      </g>
     </g>
    </g>
    <g id="ytick_3">
     <g id="line2d_10">
      <path clip-path="url(#p34be97e1ba)" d="M 58.085 231.439912 
L 347.04 231.439912 
" style="fill:none;stroke:#ffffff;stroke-linecap:round;"/>
     </g>
     <g id="text_11">
      <!-- 0.60 -->
      <g style="fill:#262626;" transform="translate(27.177969 235.376709)scale(0.11 -0.11)">
       <defs>
        <path d="M 3184 3459 
L 2625 3416 
Q 2550 3747 2413 3897 
Q 2184 4138 1850 4138 
Q 1581 4138 1378 3988 
Q 1113 3794 959 3422 
Q 806 3050 800 2363 
Q 1003 2672 1297 2822 
Q 1591 2972 1913 2972 
Q 2475 2972 2870 2558 
Q 3266 2144 3266 1488 
Q 3266 1056 3080 686 
Q 2894 316 2569 119 
Q 2244 -78 1831 -78 
Q 1128 -78 684 439 
Q 241 956 241 2144 
Q 241 3472 731 4075 
Q 1159 4600 1884 4600 
Q 2425 4600 2770 4297 
Q 3116 3994 3184 3459 
z
M 888 1484 
Q 888 1194 1011 928 
Q 1134 663 1356 523 
Q 1578 384 1822 384 
Q 2178 384 2434 671 
Q 2691 959 2691 1453 
Q 2691 1928 2437 2201 
Q 2184 2475 1800 2475 
Q 1419 2475 1153 2201 
Q 888 1928 888 1484 
z
" id="ArialMT-36" transform="scale(0.015625)"/>
       </defs>
       <use xlink:href="#ArialMT-30"/>
       <use x="55.615234" xlink:href="#ArialMT-2e"/>
       <use x="83.398438" xlink:href="#ArialMT-36"/>
       <use x="139.013672" xlink:href="#ArialMT-30"/>
      </g>
     </g>
    </g>
    <g id="ytick_4">
     <g id="line2d_11">
      <path clip-path="url(#p34be97e1ba)" d="M 58.085 197.133986 
L 347.04 197.133986 
" style="fill:none;stroke:#ffffff;stroke-linecap:round;"/>
     </g>
     <g id="text_12">
      <!-- 0.65 -->
      <g style="fill:#262626;" transform="translate(27.177969 201.070783)scale(0.11 -0.11)">
       <use xlink:href="#ArialMT-30"/>
       <use x="55.615234" xlink:href="#ArialMT-2e"/>
       <use x="83.398438" xlink:href="#ArialMT-36"/>
       <use x="139.013672" xlink:href="#ArialMT-35"/>
      </g>
     </g>
    </g>
    <g id="ytick_5">
     <g id="line2d_12">
      <path clip-path="url(#p34be97e1ba)" d="M 58.085 162.82806 
L 347.04 162.82806 
" style="fill:none;stroke:#ffffff;stroke-linecap:round;"/>
     </g>
     <g id="text_13">
      <!-- 0.70 -->
      <g style="fill:#262626;" transform="translate(27.177969 166.764856)scale(0.11 -0.11)">
       <defs>
        <path d="M 303 3981 
L 303 4522 
L 3269 4522 
L 3269 4084 
Q 2831 3619 2401 2847 
Q 1972 2075 1738 1259 
Q 1569 684 1522 0 
L 944 0 
Q 953 541 1156 1306 
Q 1359 2072 1739 2783 
Q 2119 3494 2547 3981 
L 303 3981 
z
" id="ArialMT-37" transform="scale(0.015625)"/>
       </defs>
       <use xlink:href="#ArialMT-30"/>
       <use x="55.615234" xlink:href="#ArialMT-2e"/>
       <use x="83.398438" xlink:href="#ArialMT-37"/>
       <use x="139.013672" xlink:href="#ArialMT-30"/>
      </g>
     </g>
    </g>
    <g id="ytick_6">
     <g id="line2d_13">
      <path clip-path="url(#p34be97e1ba)" d="M 58.085 128.522133 
L 347.04 128.522133 
" style="fill:none;stroke:#ffffff;stroke-linecap:round;"/>
     </g>
     <g id="text_14">
      <!-- 0.75 -->
      <g style="fill:#262626;" transform="translate(27.177969 132.45893)scale(0.11 -0.11)">
       <use xlink:href="#ArialMT-30"/>
       <use x="55.615234" xlink:href="#ArialMT-2e"/>
       <use x="83.398438" xlink:href="#ArialMT-37"/>
       <use x="139.013672" xlink:href="#ArialMT-35"/>
      </g>
     </g>
    </g>
    <g id="ytick_7">
     <g id="line2d_14">
      <path clip-path="url(#p34be97e1ba)" d="M 58.085 94.216207 
L 347.04 94.216207 
" style="fill:none;stroke:#ffffff;stroke-linecap:round;"/>
     </g>
     <g id="text_15">
      <!-- 0.80 -->
      <g style="fill:#262626;" transform="translate(27.177969 98.153004)scale(0.11 -0.11)">
       <defs>
        <path d="M 1131 2484 
Q 781 2613 612 2850 
Q 444 3088 444 3419 
Q 444 3919 803 4259 
Q 1163 4600 1759 4600 
Q 2359 4600 2725 4251 
Q 3091 3903 3091 3403 
Q 3091 3084 2923 2848 
Q 2756 2613 2416 2484 
Q 2838 2347 3058 2040 
Q 3278 1734 3278 1309 
Q 3278 722 2862 322 
Q 2447 -78 1769 -78 
Q 1091 -78 675 323 
Q 259 725 259 1325 
Q 259 1772 486 2073 
Q 713 2375 1131 2484 
z
M 1019 3438 
Q 1019 3113 1228 2906 
Q 1438 2700 1772 2700 
Q 2097 2700 2305 2904 
Q 2513 3109 2513 3406 
Q 2513 3716 2298 3927 
Q 2084 4138 1766 4138 
Q 1444 4138 1231 3931 
Q 1019 3725 1019 3438 
z
M 838 1322 
Q 838 1081 952 856 
Q 1066 631 1291 507 
Q 1516 384 1775 384 
Q 2178 384 2440 643 
Q 2703 903 2703 1303 
Q 2703 1709 2433 1975 
Q 2163 2241 1756 2241 
Q 1359 2241 1098 1978 
Q 838 1716 838 1322 
z
" id="ArialMT-38" transform="scale(0.015625)"/>
       </defs>
       <use xlink:href="#ArialMT-30"/>
       <use x="55.615234" xlink:href="#ArialMT-2e"/>
       <use x="83.398438" xlink:href="#ArialMT-38"/>
       <use x="139.013672" xlink:href="#ArialMT-30"/>
      </g>
     </g>
    </g>
    <g id="ytick_8">
     <g id="line2d_15">
      <path clip-path="url(#p34be97e1ba)" d="M 58.085 59.910281 
L 347.04 59.910281 
" style="fill:none;stroke:#ffffff;stroke-linecap:round;"/>
     </g>
     <g id="text_16">
      <!-- 0.85 -->
      <g style="fill:#262626;" transform="translate(27.177969 63.847077)scale(0.11 -0.11)">
       <use xlink:href="#ArialMT-30"/>
       <use x="55.615234" xlink:href="#ArialMT-2e"/>
       <use x="83.398438" xlink:href="#ArialMT-38"/>
       <use x="139.013672" xlink:href="#ArialMT-35"/>
      </g>
     </g>
    </g>
    <g id="text_17">
     <!-- Recall Clustering by Model Connection Weights -->
     <g style="fill:#262626;" transform="translate(20.652344 296.841563)rotate(-90)scale(0.12 -0.12)">
      <defs>
       <path d="M 503 0 
L 503 4581 
L 2534 4581 
Q 3147 4581 3465 4457 
Q 3784 4334 3975 4021 
Q 4166 3709 4166 3331 
Q 4166 2844 3850 2509 
Q 3534 2175 2875 2084 
Q 3116 1969 3241 1856 
Q 3506 1613 3744 1247 
L 4541 0 
L 3778 0 
L 3172 953 
Q 2906 1366 2734 1584 
Q 2563 1803 2427 1890 
Q 2291 1978 2150 2013 
Q 2047 2034 1813 2034 
L 1109 2034 
L 1109 0 
L 503 0 
z
M 1109 2559 
L 2413 2559 
Q 2828 2559 3062 2645 
Q 3297 2731 3419 2920 
Q 3541 3109 3541 3331 
Q 3541 3656 3305 3865 
Q 3069 4075 2559 4075 
L 1109 4075 
L 1109 2559 
z
" id="ArialMT-52" transform="scale(0.015625)"/>
       <path d="M 2588 1216 
L 3141 1144 
Q 3050 572 2676 248 
Q 2303 -75 1759 -75 
Q 1078 -75 664 370 
Q 250 816 250 1647 
Q 250 2184 428 2587 
Q 606 2991 970 3192 
Q 1334 3394 1763 3394 
Q 2303 3394 2647 3120 
Q 2991 2847 3088 2344 
L 2541 2259 
Q 2463 2594 2264 2762 
Q 2066 2931 1784 2931 
Q 1359 2931 1093 2626 
Q 828 2322 828 1663 
Q 828 994 1084 691 
Q 1341 388 1753 388 
Q 2084 388 2306 591 
Q 2528 794 2588 1216 
z
" id="ArialMT-63" transform="scale(0.015625)"/>
       <path d="M 3763 1606 
L 4369 1453 
Q 4178 706 3683 314 
Q 3188 -78 2472 -78 
Q 1731 -78 1267 223 
Q 803 525 561 1097 
Q 319 1669 319 2325 
Q 319 3041 592 3573 
Q 866 4106 1370 4382 
Q 1875 4659 2481 4659 
Q 3169 4659 3637 4309 
Q 4106 3959 4291 3325 
L 3694 3184 
Q 3534 3684 3231 3912 
Q 2928 4141 2469 4141 
Q 1941 4141 1586 3887 
Q 1231 3634 1087 3207 
Q 944 2781 944 2328 
Q 944 1744 1114 1308 
Q 1284 872 1643 656 
Q 2003 441 2422 441 
Q 2931 441 3284 734 
Q 3638 1028 3763 1606 
z
" id="ArialMT-43" transform="scale(0.015625)"/>
       <path d="M 197 991 
L 753 1078 
Q 800 744 1014 566 
Q 1228 388 1613 388 
Q 2000 388 2187 545 
Q 2375 703 2375 916 
Q 2375 1106 2209 1216 
Q 2094 1291 1634 1406 
Q 1016 1563 777 1677 
Q 538 1791 414 1992 
Q 291 2194 291 2438 
Q 291 2659 392 2848 
Q 494 3038 669 3163 
Q 800 3259 1026 3326 
Q 1253 3394 1513 3394 
Q 1903 3394 2198 3281 
Q 2494 3169 2634 2976 
Q 2775 2784 2828 2463 
L 2278 2388 
Q 2241 2644 2061 2787 
Q 1881 2931 1553 2931 
Q 1166 2931 1000 2803 
Q 834 2675 834 2503 
Q 834 2394 903 2306 
Q 972 2216 1119 2156 
Q 1203 2125 1616 2013 
Q 2213 1853 2448 1751 
Q 2684 1650 2818 1456 
Q 2953 1263 2953 975 
Q 2953 694 2789 445 
Q 2625 197 2315 61 
Q 2006 -75 1616 -75 
Q 969 -75 630 194 
Q 291 463 197 991 
z
" id="ArialMT-73" transform="scale(0.015625)"/>
       <path d="M 416 0 
L 416 3319 
L 922 3319 
L 922 2816 
Q 1116 3169 1280 3281 
Q 1444 3394 1641 3394 
Q 1925 3394 2219 3213 
L 2025 2691 
Q 1819 2813 1613 2813 
Q 1428 2813 1281 2702 
Q 1134 2591 1072 2394 
Q 978 2094 978 1738 
L 978 0 
L 416 0 
z
" id="ArialMT-72" transform="scale(0.015625)"/>
       <path d="M 319 -275 
L 866 -356 
Q 900 -609 1056 -725 
Q 1266 -881 1628 -881 
Q 2019 -881 2231 -725 
Q 2444 -569 2519 -288 
Q 2563 -116 2559 434 
Q 2191 0 1641 0 
Q 956 0 581 494 
Q 206 988 206 1678 
Q 206 2153 378 2554 
Q 550 2956 876 3175 
Q 1203 3394 1644 3394 
Q 2231 3394 2613 2919 
L 2613 3319 
L 3131 3319 
L 3131 450 
Q 3131 -325 2973 -648 
Q 2816 -972 2473 -1159 
Q 2131 -1347 1631 -1347 
Q 1038 -1347 672 -1080 
Q 306 -813 319 -275 
z
M 784 1719 
Q 784 1066 1043 766 
Q 1303 466 1694 466 
Q 2081 466 2343 764 
Q 2606 1063 2606 1700 
Q 2606 2309 2336 2618 
Q 2066 2928 1684 2928 
Q 1309 2928 1046 2623 
Q 784 2319 784 1719 
z
" id="ArialMT-67" transform="scale(0.015625)"/>
       <path d="M 941 0 
L 419 0 
L 419 4581 
L 981 4581 
L 981 2947 
Q 1338 3394 1891 3394 
Q 2197 3394 2470 3270 
Q 2744 3147 2920 2923 
Q 3097 2700 3197 2384 
Q 3297 2069 3297 1709 
Q 3297 856 2875 390 
Q 2453 -75 1863 -75 
Q 1275 -75 941 416 
L 941 0 
z
M 934 1684 
Q 934 1088 1097 822 
Q 1363 388 1816 388 
Q 2184 388 2453 708 
Q 2722 1028 2722 1663 
Q 2722 2313 2464 2622 
Q 2206 2931 1841 2931 
Q 1472 2931 1203 2611 
Q 934 2291 934 1684 
z
" id="ArialMT-62" transform="scale(0.015625)"/>
       <path d="M 397 -1278 
L 334 -750 
Q 519 -800 656 -800 
Q 844 -800 956 -737 
Q 1069 -675 1141 -563 
Q 1194 -478 1313 -144 
Q 1328 -97 1363 -6 
L 103 3319 
L 709 3319 
L 1400 1397 
Q 1534 1031 1641 628 
Q 1738 1016 1872 1384 
L 2581 3319 
L 3144 3319 
L 1881 -56 
Q 1678 -603 1566 -809 
Q 1416 -1088 1222 -1217 
Q 1028 -1347 759 -1347 
Q 597 -1347 397 -1278 
z
" id="ArialMT-79" transform="scale(0.015625)"/>
       <path d="M 1294 0 
L 78 4581 
L 700 4581 
L 1397 1578 
Q 1509 1106 1591 641 
Q 1766 1375 1797 1488 
L 2669 4581 
L 3400 4581 
L 4056 2263 
Q 4303 1400 4413 641 
Q 4500 1075 4641 1638 
L 5359 4581 
L 5969 4581 
L 4713 0 
L 4128 0 
L 3163 3491 
Q 3041 3928 3019 4028 
Q 2947 3713 2884 3491 
L 1913 0 
L 1294 0 
z
" id="ArialMT-57" transform="scale(0.015625)"/>
       <path d="M 422 0 
L 422 4581 
L 984 4581 
L 984 2938 
Q 1378 3394 1978 3394 
Q 2347 3394 2619 3248 
Q 2891 3103 3008 2847 
Q 3125 2591 3125 2103 
L 3125 0 
L 2563 0 
L 2563 2103 
Q 2563 2525 2380 2717 
Q 2197 2909 1863 2909 
Q 1613 2909 1392 2779 
Q 1172 2650 1078 2428 
Q 984 2206 984 1816 
L 984 0 
L 422 0 
z
" id="ArialMT-68" transform="scale(0.015625)"/>
      </defs>
      <use xlink:href="#ArialMT-52"/>
      <use x="72.216797" xlink:href="#ArialMT-65"/>
      <use x="127.832031" xlink:href="#ArialMT-63"/>
      <use x="177.832031" xlink:href="#ArialMT-61"/>
      <use x="233.447266" xlink:href="#ArialMT-6c"/>
      <use x="255.664062" xlink:href="#ArialMT-6c"/>
      <use x="277.880859" xlink:href="#ArialMT-20"/>
      <use x="305.664062" xlink:href="#ArialMT-43"/>
      <use x="377.880859" xlink:href="#ArialMT-6c"/>
      <use x="400.097656" xlink:href="#ArialMT-75"/>
      <use x="455.712891" xlink:href="#ArialMT-73"/>
      <use x="505.712891" xlink:href="#ArialMT-74"/>
      <use x="533.496094" xlink:href="#ArialMT-65"/>
      <use x="589.111328" xlink:href="#ArialMT-72"/>
      <use x="622.412109" xlink:href="#ArialMT-69"/>
      <use x="644.628906" xlink:href="#ArialMT-6e"/>
      <use x="700.244141" xlink:href="#ArialMT-67"/>
      <use x="755.859375" xlink:href="#ArialMT-20"/>
      <use x="783.642578" xlink:href="#ArialMT-62"/>
      <use x="839.257812" xlink:href="#ArialMT-79"/>
      <use x="889.257812" xlink:href="#ArialMT-20"/>
      <use x="917.041016" xlink:href="#ArialMT-4d"/>
      <use x="1000.341797" xlink:href="#ArialMT-6f"/>
      <use x="1055.957031" xlink:href="#ArialMT-64"/>
      <use x="1111.572266" xlink:href="#ArialMT-65"/>
      <use x="1167.1875" xlink:href="#ArialMT-6c"/>
      <use x="1189.404297" xlink:href="#ArialMT-20"/>
      <use x="1217.1875" xlink:href="#ArialMT-43"/>
      <use x="1289.404297" xlink:href="#ArialMT-6f"/>
      <use x="1345.019531" xlink:href="#ArialMT-6e"/>
      <use x="1400.634766" xlink:href="#ArialMT-6e"/>
      <use x="1456.25" xlink:href="#ArialMT-65"/>
      <use x="1511.865234" xlink:href="#ArialMT-63"/>
      <use x="1561.865234" xlink:href="#ArialMT-74"/>
      <use x="1589.648438" xlink:href="#ArialMT-69"/>
      <use x="1611.865234" xlink:href="#ArialMT-6f"/>
      <use x="1667.480469" xlink:href="#ArialMT-6e"/>
      <use x="1723.095703" xlink:href="#ArialMT-20"/>
      <use x="1750.878906" xlink:href="#ArialMT-57"/>
      <use x="1843.513672" xlink:href="#ArialMT-65"/>
      <use x="1899.128906" xlink:href="#ArialMT-69"/>
      <use x="1921.345703" xlink:href="#ArialMT-67"/>
      <use x="1976.960938" xlink:href="#ArialMT-68"/>
      <use x="2032.576172" xlink:href="#ArialMT-74"/>
      <use x="2060.359375" xlink:href="#ArialMT-73"/>
     </g>
    </g>
   </g>
   <g id="PolyCollection_1">
    <defs>
     <path d="M 71.219318 -116.148777 
L 71.219318 -67.220923 
L 79.97553 -75.374285 
L 88.731742 -111.580914 
L 97.487955 -114.80204 
L 106.244167 -113.39224 
L 115.000379 -122.955867 
L 123.756591 -127.70528 
L 132.512803 -130.924898 
L 141.269015 -135.252506 
L 150.025227 -140.679331 
L 158.781439 -148.957087 
L 167.537652 -153.812885 
L 176.293864 -153.671662 
L 185.050076 -158.728833 
L 193.806288 -161.433749 
L 202.5625 -166.260014 
L 211.318712 -166.136197 
L 220.074924 -168.35895 
L 228.831136 -163.188482 
L 237.587348 -171.573991 
L 246.343561 -171.722208 
L 255.099773 -175.266392 
L 263.855985 -175.268507 
L 272.612197 -179.340476 
L 281.368409 -178.506089 
L 290.124621 -178.991018 
L 298.880833 -177.628045 
L 307.637045 -181.30698 
L 316.393258 -176.68208 
L 325.14947 -184.407364 
L 333.905682 -185.8549 
L 333.905682 -242.508529 
L 333.905682 -242.508529 
L 325.14947 -240.77475 
L 316.393258 -236.638503 
L 307.637045 -235.955183 
L 298.880833 -232.997044 
L 290.124621 -235.157975 
L 281.368409 -236.006747 
L 272.612197 -236.938805 
L 263.855985 -237.928608 
L 255.099773 -231.479512 
L 246.343561 -226.693181 
L 237.587348 -225.334847 
L 228.831136 -219.685281 
L 220.074924 -220.65754 
L 211.318712 -219.499166 
L 202.5625 -218.193621 
L 193.806288 -217.479988 
L 185.050076 -215.20791 
L 176.293864 -205.983357 
L 167.537652 -205.423938 
L 158.781439 -198.874677 
L 150.025227 -188.917118 
L 141.269015 -186.22842 
L 132.512803 -180.303286 
L 123.756591 -175.204404 
L 115.000379 -172.684875 
L 106.244167 -160.301484 
L 97.487955 -159.740375 
L 88.731742 -154.147156 
L 79.97553 -129.977779 
L 71.219318 -116.148777 
z
" id="mb5b1045b8c" style="stroke:#a1c9f4;stroke-opacity:0.2;"/>
    </defs>
    <g clip-path="url(#p34be97e1ba)">
     <use style="fill:#a1c9f4;fill-opacity:0.2;stroke:#a1c9f4;stroke-opacity:0.2;" x="0" xlink:href="#mb5b1045b8c" y="360"/>
    </g>
   </g>
   <g id="PolyCollection_2">
    <defs>
     <path d="M 71.219318 -114.190379 
L 71.219318 -80.295322 
L 79.97553 -99.074773 
L 88.731742 -107.215713 
L 97.487955 -120.536832 
L 106.244167 -128.22019 
L 115.000379 -133.318907 
L 123.756591 -147.209554 
L 132.512803 -157.167946 
L 141.269015 -169.339806 
L 150.025227 -212.649084 
L 158.781439 -213.908976 
L 167.537652 -217.888273 
L 176.293864 -222.950515 
L 185.050076 -222.866833 
L 193.806288 -226.870858 
L 202.5625 -227.900112 
L 211.318712 -233.587761 
L 220.074924 -234.639112 
L 228.831136 -236.147361 
L 237.587348 -240.150783 
L 237.587348 -265.648397 
L 237.587348 -265.648397 
L 228.831136 -260.825411 
L 220.074924 -260.311433 
L 211.318712 -259.111267 
L 202.5625 -254.863813 
L 193.806288 -252.606086 
L 185.050076 -250.543851 
L 176.293864 -249.902901 
L 167.537652 -244.939723 
L 158.781439 -242.278195 
L 150.025227 -239.943518 
L 141.269015 -197.3489 
L 132.512803 -187.108776 
L 123.756591 -172.118767 
L 115.000379 -160.052519 
L 106.244167 -155.749267 
L 97.487955 -146.516906 
L 88.731742 -136.661116 
L 79.97553 -132.17454 
L 71.219318 -114.190379 
z
" id="m29ca0791ea" style="stroke:#ffb482;stroke-opacity:0.2;"/>
    </defs>
    <g clip-path="url(#p34be97e1ba)">
     <use style="fill:#ffb482;fill-opacity:0.2;stroke:#ffb482;stroke-opacity:0.2;" x="0" xlink:href="#m29ca0791ea" y="360"/>
    </g>
   </g>
   <g id="PolyCollection_3">
    <defs>
     <path d="M 71.219318 -137.917574 
L 71.219318 -106.809015 
L 79.97553 -108.222288 
L 88.731742 -110.934757 
L 97.487955 -116.582673 
L 106.244167 -117.586388 
L 115.000379 -156.595476 
L 123.756591 -191.247901 
L 132.512803 -190.684562 
L 141.269015 -198.254775 
L 150.025227 -201.673889 
L 158.781439 -233.996341 
L 167.537652 -245.328839 
L 176.293864 -262.297553 
L 185.050076 -280.904852 
L 193.806288 -286.105923 
L 202.5625 -287.625592 
L 211.318712 -288.202887 
L 220.074924 -287.849982 
L 228.831136 -290.796252 
L 228.831136 -313.402849 
L 228.831136 -313.402849 
L 220.074924 -312.338321 
L 211.318712 -312.144737 
L 202.5625 -311.167189 
L 193.806288 -311.029322 
L 185.050076 -308.498958 
L 176.293864 -291.470776 
L 167.537652 -279.393614 
L 158.781439 -264.383894 
L 150.025227 -235.420967 
L 141.269015 -232.472206 
L 132.512803 -228.750957 
L 123.756591 -228.408494 
L 115.000379 -185.912396 
L 106.244167 -148.964239 
L 97.487955 -146.415625 
L 88.731742 -141.838641 
L 79.97553 -136.39 
L 71.219318 -137.917574 
z
" id="mad07962385" style="stroke:#8de5a1;stroke-opacity:0.2;"/>
    </defs>
    <g clip-path="url(#p34be97e1ba)">
     <use style="fill:#8de5a1;fill-opacity:0.2;stroke:#8de5a1;stroke-opacity:0.2;" x="0" xlink:href="#mad07962385" y="360"/>
    </g>
   </g>
   <g id="PolyCollection_4">
    <defs>
     <path d="M 71.219318 -143.880395 
L 71.219318 -101.9464 
L 79.97553 -118.80675 
L 88.731742 -130.520171 
L 97.487955 -138.046621 
L 106.244167 -141.9053 
L 115.000379 -141.766824 
L 123.756591 -149.515366 
L 132.512803 -157.918141 
L 141.269015 -163.37297 
L 150.025227 -170.093469 
L 158.781439 -170.12766 
L 167.537652 -171.477338 
L 176.293864 -171.820236 
L 185.050076 -177.474045 
L 193.806288 -184.077853 
L 202.5625 -187.178634 
L 211.318712 -195.033782 
L 220.074924 -201.773259 
L 228.831136 -202.394495 
L 237.587348 -206.346318 
L 246.343561 -207.460474 
L 255.099773 -209.68961 
L 263.855985 -213.76037 
L 272.612197 -221.175583 
L 281.368409 -223.129281 
L 290.124621 -231.658922 
L 290.124621 -264.212282 
L 290.124621 -264.212282 
L 281.368409 -259.868024 
L 272.612197 -258.395705 
L 263.855985 -256.11601 
L 255.099773 -250.543499 
L 246.343561 -247.98502 
L 237.587348 -245.570159 
L 228.831136 -241.467221 
L 220.074924 -240.00484 
L 211.318712 -233.929768 
L 202.5625 -226.881413 
L 193.806288 -223.972727 
L 185.050076 -216.27368 
L 176.293864 -208.603078 
L 167.537652 -208.332342 
L 158.781439 -209.071245 
L 150.025227 -207.761944 
L 141.269015 -201.8996 
L 132.512803 -199.87262 
L 123.756591 -189.840322 
L 115.000379 -184.856373 
L 106.244167 -182.716434 
L 97.487955 -177.993783 
L 88.731742 -172.604875 
L 79.97553 -156.978653 
L 71.219318 -143.880395 
z
" id="m51ca6d8a2f" style="stroke:#ff9f9b;stroke-opacity:0.2;"/>
    </defs>
    <g clip-path="url(#p34be97e1ba)">
     <use style="fill:#ff9f9b;fill-opacity:0.2;stroke:#ff9f9b;stroke-opacity:0.2;" x="0" xlink:href="#m51ca6d8a2f" y="360"/>
    </g>
   </g>
   <g id="PolyCollection_5">
    <defs>
     <path d="M 71.219318 -133.015749 
L 71.219318 -96.826616 
L 79.97553 -146.052808 
L 88.731742 -178.212769 
L 97.487955 -187.34902 
L 106.244167 -198.289282 
L 115.000379 -200.514597 
L 123.756591 -217.373592 
L 132.512803 -228.135624 
L 141.269015 -250.766926 
L 150.025227 -264.045623 
L 158.781439 -272.357607 
L 158.781439 -302.789799 
L 158.781439 -302.789799 
L 150.025227 -286.910851 
L 141.269015 -277.178967 
L 132.512803 -260.775922 
L 123.756591 -250.387174 
L 115.000379 -231.723525 
L 106.244167 -229.340067 
L 97.487955 -219.155226 
L 88.731742 -209.220958 
L 79.97553 -179.454294 
L 71.219318 -133.015749 
z
" id="m5cf5c85e5c" style="stroke:#d0bbff;stroke-opacity:0.2;"/>
    </defs>
    <g clip-path="url(#p34be97e1ba)">
     <use style="fill:#d0bbff;fill-opacity:0.2;stroke:#d0bbff;stroke-opacity:0.2;" x="0" xlink:href="#m5cf5c85e5c" y="360"/>
    </g>
   </g>
   <g id="PolyCollection_6">
    <defs>
     <path d="M 71.219318 -93.431085 
L 71.219318 -59.531108 
L 79.97553 -101.998104 
L 88.731742 -123.461464 
L 97.487955 -135.220879 
L 106.244167 -146.330674 
L 115.000379 -161.207137 
L 123.756591 -173.977174 
L 132.512803 -180.067594 
L 141.269015 -202.199866 
L 150.025227 -244.460769 
L 158.781439 -261.085791 
L 167.537652 -279.064146 
L 176.293864 -282.805404 
L 176.293864 -320.015767 
L 176.293864 -320.015767 
L 167.537652 -312.344903 
L 158.781439 -294.397671 
L 150.025227 -276.215253 
L 141.269015 -240.475381 
L 132.512803 -215.550386 
L 123.756591 -208.492854 
L 115.000379 -197.292832 
L 106.244167 -180.104423 
L 97.487955 -168.106086 
L 88.731742 -153.174938 
L 79.97553 -131.975066 
L 71.219318 -93.431085 
z
" id="mb64c3f2c43" style="stroke:#debb9b;stroke-opacity:0.2;"/>
    </defs>
    <g clip-path="url(#p34be97e1ba)">
     <use style="fill:#debb9b;fill-opacity:0.2;stroke:#debb9b;stroke-opacity:0.2;" x="0" xlink:href="#mb64c3f2c43" y="360"/>
    </g>
   </g>
   <g id="line2d_16">
    <path clip-path="url(#p34be97e1ba)" d="M 71.219318 265.265929 
L 79.97553 253.487276 
L 88.731742 224.965962 
L 97.487955 220.879709 
L 106.244167 220.612803 
L 115.000379 209.117273 
L 123.756591 206.954346 
L 132.512803 201.554656 
L 141.269015 197.859436 
L 150.025227 193.07412 
L 158.781439 184.809359 
L 167.537652 178.1955 
L 176.293864 177.571213 
L 185.050076 169.425878 
L 193.806288 167.182102 
L 202.5625 165.678622 
L 211.318712 165.678622 
L 220.074924 165.362287 
L 228.831136 165.552169 
L 237.587348 158.416852 
L 246.343561 157.375214 
L 255.099773 154.013027 
L 263.855985 150.419184 
L 272.612197 150.147882 
L 281.368409 149.869787 
L 290.124621 149.46832 
L 298.880833 149.893641 
L 307.637045 148.434686 
L 316.393258 147.504004 
L 325.14947 143.251971 
L 333.905682 141.421402 
" style="fill:none;stroke:#a1c9f4;stroke-linecap:round;stroke-width:1.5;"/>
   </g>
   <g id="line2d_17">
    <path clip-path="url(#p34be97e1ba)" d="M 71.219318 262.323577 
L 79.97553 244.285876 
L 88.731742 238.732793 
L 97.487955 225.864617 
L 106.244167 218.879798 
L 115.000379 212.92377 
L 123.756591 201.227483 
L 132.512803 188.23392 
L 141.269015 176.135335 
L 150.025227 133.348838 
L 158.781439 131.657437 
L 167.537652 127.969732 
L 176.293864 123.476328 
L 185.050076 123.889798 
L 193.806288 120.29603 
L 202.5625 118.430684 
L 211.318712 113.760644 
L 220.074924 112.615567 
L 228.831136 111.126529 
L 237.587348 107.413614 
" style="fill:none;stroke:#ffb482;stroke-linecap:round;stroke-width:1.5;"/>
   </g>
   <g id="line2d_18">
    <path clip-path="url(#p34be97e1ba)" d="M 71.219318 238.103277 
L 79.97553 238.103277 
L 88.731742 234.352411 
L 97.487955 228.900868 
L 106.244167 226.896197 
L 115.000379 188.410513 
L 123.756591 150.898291 
L 132.512803 150.879411 
L 141.269015 145.486114 
L 150.025227 142.33054 
L 158.781439 112.019909 
L 167.537652 97.056921 
L 176.293864 82.947889 
L 185.050076 64.558211 
L 193.806288 60.617482 
L 202.5625 60.215401 
L 211.318712 59.359352 
L 220.074924 59.202392 
L 228.831136 57.469463 
" style="fill:none;stroke:#8de5a1;stroke-linecap:round;stroke-width:1.5;"/>
   </g>
   <g id="line2d_19">
    <path clip-path="url(#p34be97e1ba)" d="M 71.219318 238.555691 
L 79.97553 221.962993 
L 88.731742 210.017162 
L 97.487955 203.083731 
L 106.244167 199.196571 
L 115.000379 197.678114 
L 123.756591 190.103966 
L 132.512803 181.301549 
L 141.269015 177.196117 
L 150.025227 171.160933 
L 158.781439 170.294519 
L 167.537652 169.956991 
L 176.293864 169.672363 
L 185.050076 162.426296 
L 193.806288 155.273779 
L 202.5625 153.348809 
L 211.318712 144.87887 
L 220.074924 138.346527 
L 228.831136 138.049044 
L 237.587348 133.400241 
L 246.343561 132.608063 
L 255.099773 128.651873 
L 263.855985 125.236829 
L 272.612197 120.352256 
L 281.368409 118.141222 
L 290.124621 111.8248 
" style="fill:none;stroke:#ff9f9b;stroke-linecap:round;stroke-width:1.5;"/>
   </g>
   <g id="line2d_20">
    <path clip-path="url(#p34be97e1ba)" d="M 71.219318 245.991098 
L 79.97553 197.759016 
L 88.731742 166.749726 
L 97.487955 157.156694 
L 106.244167 146.892795 
L 115.000379 144.232287 
L 123.756591 125.17522 
L 132.512803 116.05569 
L 141.269015 95.277285 
L 150.025227 84.537724 
L 158.781439 71.427474 
" style="fill:none;stroke:#d0bbff;stroke-linecap:round;stroke-width:1.5;"/>
   </g>
   <g id="line2d_21">
    <path clip-path="url(#p34be97e1ba)" d="M 71.219318 283.180504 
L 79.97553 241.936896 
L 88.731742 220.564566 
L 97.487955 208.058554 
L 106.244167 197.284647 
L 115.000379 180.186816 
L 123.756591 167.155103 
L 132.512803 160.723845 
L 141.269015 137.743119 
L 150.025227 98.573409 
L 158.781439 82.38286 
L 167.537652 63.184558 
L 176.293864 58.123149 
" style="fill:none;stroke:#debb9b;stroke-linecap:round;stroke-width:1.5;"/>
   </g>
   <g id="line2d_22"/>
   <g id="line2d_23"/>
   <g id="line2d_24"/>
   <g id="line2d_25"/>
   <g id="line2d_26"/>
   <g id="line2d_27"/>
   <g id="patch_3">
    <path d="M 58.085 313.493125 
L 58.085 26.96 
" style="fill:none;stroke:#ffffff;stroke-linecap:square;stroke-linejoin:miter;stroke-width:1.25;"/>
   </g>
   <g id="patch_4">
    <path d="M 58.085 313.493125 
L 347.04 313.493125 
" style="fill:none;stroke:#ffffff;stroke-linecap:square;stroke-linejoin:miter;stroke-width:1.25;"/>
   </g>
   <g id="text_18">
    <!-- The Landscape Model Accounts for Recall Organization -->
    <g style="fill:#262626;" transform="translate(54.487188 7.951625)scale(0.12 -0.12)">
     <defs>
      <path d="M 1659 0 
L 1659 4041 
L 150 4041 
L 150 4581 
L 3781 4581 
L 3781 4041 
L 2266 4041 
L 2266 0 
L 1659 0 
z
" id="ArialMT-54" transform="scale(0.015625)"/>
      <path d="M 469 0 
L 469 4581 
L 1075 4581 
L 1075 541 
L 3331 541 
L 3331 0 
L 469 0 
z
" id="ArialMT-4c" transform="scale(0.015625)"/>
      <path d="M -9 0 
L 1750 4581 
L 2403 4581 
L 4278 0 
L 3588 0 
L 3053 1388 
L 1138 1388 
L 634 0 
L -9 0 
z
M 1313 1881 
L 2866 1881 
L 2388 3150 
Q 2169 3728 2063 4100 
Q 1975 3659 1816 3225 
L 1313 1881 
z
" id="ArialMT-41" transform="scale(0.015625)"/>
      <path d="M 556 0 
L 556 2881 
L 59 2881 
L 59 3319 
L 556 3319 
L 556 3672 
Q 556 4006 616 4169 
Q 697 4388 901 4523 
Q 1106 4659 1475 4659 
Q 1713 4659 2000 4603 
L 1916 4113 
Q 1741 4144 1584 4144 
Q 1328 4144 1222 4034 
Q 1116 3925 1116 3625 
L 1116 3319 
L 1763 3319 
L 1763 2881 
L 1116 2881 
L 1116 0 
L 556 0 
z
" id="ArialMT-66" transform="scale(0.015625)"/>
      <path d="M 309 2231 
Q 309 3372 921 4017 
Q 1534 4663 2503 4663 
Q 3138 4663 3647 4359 
Q 4156 4056 4423 3514 
Q 4691 2972 4691 2284 
Q 4691 1588 4409 1038 
Q 4128 488 3612 205 
Q 3097 -78 2500 -78 
Q 1853 -78 1343 234 
Q 834 547 571 1087 
Q 309 1628 309 2231 
z
M 934 2222 
Q 934 1394 1379 917 
Q 1825 441 2497 441 
Q 3181 441 3623 922 
Q 4066 1403 4066 2288 
Q 4066 2847 3877 3264 
Q 3688 3681 3323 3911 
Q 2959 4141 2506 4141 
Q 1863 4141 1398 3698 
Q 934 3256 934 2222 
z
" id="ArialMT-4f" transform="scale(0.015625)"/>
      <path d="M 125 0 
L 125 456 
L 2238 2881 
Q 1878 2863 1603 2863 
L 250 2863 
L 250 3319 
L 2963 3319 
L 2963 2947 
L 1166 841 
L 819 456 
Q 1197 484 1528 484 
L 3063 484 
L 3063 0 
L 125 0 
z
" id="ArialMT-7a" transform="scale(0.015625)"/>
     </defs>
     <use xlink:href="#ArialMT-54"/>
     <use x="61.083984" xlink:href="#ArialMT-68"/>
     <use x="116.699219" xlink:href="#ArialMT-65"/>
     <use x="172.314453" xlink:href="#ArialMT-20"/>
     <use x="200.097656" xlink:href="#ArialMT-4c"/>
     <use x="255.712891" xlink:href="#ArialMT-61"/>
     <use x="311.328125" xlink:href="#ArialMT-6e"/>
     <use x="366.943359" xlink:href="#ArialMT-64"/>
     <use x="422.558594" xlink:href="#ArialMT-73"/>
     <use x="472.558594" xlink:href="#ArialMT-63"/>
     <use x="522.558594" xlink:href="#ArialMT-61"/>
     <use x="578.173828" xlink:href="#ArialMT-70"/>
     <use x="633.789062" xlink:href="#ArialMT-65"/>
     <use x="689.404297" xlink:href="#ArialMT-20"/>
     <use x="717.1875" xlink:href="#ArialMT-4d"/>
     <use x="800.488281" xlink:href="#ArialMT-6f"/>
     <use x="856.103516" xlink:href="#ArialMT-64"/>
     <use x="911.71875" xlink:href="#ArialMT-65"/>
     <use x="967.333984" xlink:href="#ArialMT-6c"/>
     <use x="989.550781" xlink:href="#ArialMT-20"/>
     <use x="1011.833984" xlink:href="#ArialMT-41"/>
     <use x="1078.533203" xlink:href="#ArialMT-63"/>
     <use x="1128.533203" xlink:href="#ArialMT-63"/>
     <use x="1178.533203" xlink:href="#ArialMT-6f"/>
     <use x="1234.148438" xlink:href="#ArialMT-75"/>
     <use x="1289.763672" xlink:href="#ArialMT-6e"/>
     <use x="1345.378906" xlink:href="#ArialMT-74"/>
     <use x="1373.162109" xlink:href="#ArialMT-73"/>
     <use x="1423.162109" xlink:href="#ArialMT-20"/>
     <use x="1450.945312" xlink:href="#ArialMT-66"/>
     <use x="1478.728516" xlink:href="#ArialMT-6f"/>
     <use x="1534.34375" xlink:href="#ArialMT-72"/>
     <use x="1567.644531" xlink:href="#ArialMT-20"/>
     <use x="1595.427734" xlink:href="#ArialMT-52"/>
     <use x="1667.644531" xlink:href="#ArialMT-65"/>
     <use x="1723.259766" xlink:href="#ArialMT-63"/>
     <use x="1773.259766" xlink:href="#ArialMT-61"/>
     <use x="1828.875" xlink:href="#ArialMT-6c"/>
     <use x="1851.091797" xlink:href="#ArialMT-6c"/>
     <use x="1873.308594" xlink:href="#ArialMT-20"/>
     <use x="1901.091797" xlink:href="#ArialMT-4f"/>
     <use x="1978.875" xlink:href="#ArialMT-72"/>
     <use x="2012.175781" xlink:href="#ArialMT-67"/>
     <use x="2067.791016" xlink:href="#ArialMT-61"/>
     <use x="2123.40625" xlink:href="#ArialMT-6e"/>
     <use x="2179.021484" xlink:href="#ArialMT-69"/>
     <use x="2201.238281" xlink:href="#ArialMT-7a"/>
     <use x="2251.238281" xlink:href="#ArialMT-61"/>
     <use x="2306.853516" xlink:href="#ArialMT-74"/>
     <use x="2334.636719" xlink:href="#ArialMT-69"/>
     <use x="2356.853516" xlink:href="#ArialMT-6f"/>
     <use x="2412.46875" xlink:href="#ArialMT-6e"/>
    </g>
    <!-- Much Better Than Semantic Similarity Alone -->
    <g style="fill:#262626;" transform="translate(85.6225 20.96)scale(0.12 -0.12)">
     <defs>
      <path d="M 469 0 
L 469 4581 
L 2188 4581 
Q 2713 4581 3030 4442 
Q 3347 4303 3526 4014 
Q 3706 3725 3706 3409 
Q 3706 3116 3547 2856 
Q 3388 2597 3066 2438 
Q 3481 2316 3704 2022 
Q 3928 1728 3928 1328 
Q 3928 1006 3792 729 
Q 3656 453 3456 303 
Q 3256 153 2954 76 
Q 2653 0 2216 0 
L 469 0 
z
M 1075 2656 
L 2066 2656 
Q 2469 2656 2644 2709 
Q 2875 2778 2992 2937 
Q 3109 3097 3109 3338 
Q 3109 3566 3000 3739 
Q 2891 3913 2687 3977 
Q 2484 4041 1991 4041 
L 1075 4041 
L 1075 2656 
z
M 1075 541 
L 2216 541 
Q 2509 541 2628 563 
Q 2838 600 2978 687 
Q 3119 775 3209 942 
Q 3300 1109 3300 1328 
Q 3300 1584 3169 1773 
Q 3038 1963 2805 2039 
Q 2572 2116 2134 2116 
L 1075 2116 
L 1075 541 
z
" id="ArialMT-42" transform="scale(0.015625)"/>
     </defs>
     <use xlink:href="#ArialMT-4d"/>
     <use x="83.300781" xlink:href="#ArialMT-75"/>
     <use x="138.916016" xlink:href="#ArialMT-63"/>
     <use x="188.916016" xlink:href="#ArialMT-68"/>
     <use x="244.53125" xlink:href="#ArialMT-20"/>
     <use x="272.314453" xlink:href="#ArialMT-42"/>
     <use x="339.013672" xlink:href="#ArialMT-65"/>
     <use x="394.628906" xlink:href="#ArialMT-74"/>
     <use x="422.412109" xlink:href="#ArialMT-74"/>
     <use x="450.195312" xlink:href="#ArialMT-65"/>
     <use x="505.810547" xlink:href="#ArialMT-72"/>
     <use x="539.111328" xlink:href="#ArialMT-20"/>
     <use x="565.144531" xlink:href="#ArialMT-54"/>
     <use x="626.228516" xlink:href="#ArialMT-68"/>
     <use x="681.84375" xlink:href="#ArialMT-61"/>
     <use x="737.458984" xlink:href="#ArialMT-6e"/>
     <use x="793.074219" xlink:href="#ArialMT-20"/>
     <use x="820.857422" xlink:href="#ArialMT-53"/>
     <use x="887.556641" xlink:href="#ArialMT-65"/>
     <use x="943.171875" xlink:href="#ArialMT-6d"/>
     <use x="1026.472656" xlink:href="#ArialMT-61"/>
     <use x="1082.087891" xlink:href="#ArialMT-6e"/>
     <use x="1137.703125" xlink:href="#ArialMT-74"/>
     <use x="1165.486328" xlink:href="#ArialMT-69"/>
     <use x="1187.703125" xlink:href="#ArialMT-63"/>
     <use x="1237.703125" xlink:href="#ArialMT-20"/>
     <use x="1265.486328" xlink:href="#ArialMT-53"/>
     <use x="1332.185547" xlink:href="#ArialMT-69"/>
     <use x="1354.402344" xlink:href="#ArialMT-6d"/>
     <use x="1437.703125" xlink:href="#ArialMT-69"/>
     <use x="1459.919922" xlink:href="#ArialMT-6c"/>
     <use x="1482.136719" xlink:href="#ArialMT-61"/>
     <use x="1537.751953" xlink:href="#ArialMT-72"/>
     <use x="1571.052734" xlink:href="#ArialMT-69"/>
     <use x="1593.269531" xlink:href="#ArialMT-74"/>
     <use x="1621.052734" xlink:href="#ArialMT-79"/>
     <use x="1671.052734" xlink:href="#ArialMT-20"/>
     <use x="1693.335938" xlink:href="#ArialMT-41"/>
     <use x="1760.035156" xlink:href="#ArialMT-6c"/>
     <use x="1782.251953" xlink:href="#ArialMT-6f"/>
     <use x="1837.867188" xlink:href="#ArialMT-6e"/>
     <use x="1893.482422" xlink:href="#ArialMT-65"/>
    </g>
   </g>
   <g id="legend_1">
    <g id="patch_5">
     <path d="M 241.173594 307.993125 
L 339.34 307.993125 
Q 341.54 307.993125 341.54 305.793125 
L 341.54 196.380937 
Q 341.54 194.180937 339.34 194.180937 
L 241.173594 194.180937 
Q 238.973594 194.180937 238.973594 196.380937 
L 238.973594 305.793125 
Q 238.973594 307.993125 241.173594 307.993125 
z
" style="fill:#eaeaf2;opacity:0.8;stroke:#cccccc;stroke-linejoin:miter;"/>
    </g>
    <g id="text_19">
     <!-- Story -->
     <g style="fill:#262626;" transform="translate(276.253359 207.316562)scale(0.12 -0.12)">
      <use xlink:href="#ArialMT-53"/>
      <use x="66.699219" xlink:href="#ArialMT-74"/>
      <use x="94.482422" xlink:href="#ArialMT-6f"/>
      <use x="150.097656" xlink:href="#ArialMT-72"/>
      <use x="183.398438" xlink:href="#ArialMT-79"/>
     </g>
    </g>
    <g id="line2d_28">
     <path d="M 243.373594 219.365781 
L 265.373594 219.365781 
" style="fill:none;stroke:#a1c9f4;stroke-linecap:round;stroke-width:1.5;"/>
    </g>
    <g id="line2d_29"/>
    <g id="text_20">
     <!-- Fisherman -->
     <g style="fill:#262626;" transform="translate(274.173594 223.215781)scale(0.11 -0.11)">
      <defs>
       <path d="M 525 0 
L 525 4581 
L 3616 4581 
L 3616 4041 
L 1131 4041 
L 1131 2622 
L 3281 2622 
L 3281 2081 
L 1131 2081 
L 1131 0 
L 525 0 
z
" id="ArialMT-46" transform="scale(0.015625)"/>
      </defs>
      <use xlink:href="#ArialMT-46"/>
      <use x="61.083984" xlink:href="#ArialMT-69"/>
      <use x="83.300781" xlink:href="#ArialMT-73"/>
      <use x="133.300781" xlink:href="#ArialMT-68"/>
      <use x="188.916016" xlink:href="#ArialMT-65"/>
      <use x="244.53125" xlink:href="#ArialMT-72"/>
      <use x="277.832031" xlink:href="#ArialMT-6d"/>
      <use x="361.132812" xlink:href="#ArialMT-61"/>
      <use x="416.748047" xlink:href="#ArialMT-6e"/>
     </g>
    </g>
    <g id="line2d_30">
     <path d="M 243.373594 235.059687 
L 265.373594 235.059687 
" style="fill:none;stroke:#ffb482;stroke-linecap:round;stroke-width:1.5;"/>
    </g>
    <g id="line2d_31"/>
    <g id="text_21">
     <!-- Supermarket -->
     <g style="fill:#262626;" transform="translate(274.173594 238.909687)scale(0.11 -0.11)">
      <defs>
       <path d="M 425 0 
L 425 4581 
L 988 4581 
L 988 1969 
L 2319 3319 
L 3047 3319 
L 1778 2088 
L 3175 0 
L 2481 0 
L 1384 1697 
L 988 1316 
L 988 0 
L 425 0 
z
" id="ArialMT-6b" transform="scale(0.015625)"/>
      </defs>
      <use xlink:href="#ArialMT-53"/>
      <use x="66.699219" xlink:href="#ArialMT-75"/>
      <use x="122.314453" xlink:href="#ArialMT-70"/>
      <use x="177.929688" xlink:href="#ArialMT-65"/>
      <use x="233.544922" xlink:href="#ArialMT-72"/>
      <use x="266.845703" xlink:href="#ArialMT-6d"/>
      <use x="350.146484" xlink:href="#ArialMT-61"/>
      <use x="405.761719" xlink:href="#ArialMT-72"/>
      <use x="439.0625" xlink:href="#ArialMT-6b"/>
      <use x="489.0625" xlink:href="#ArialMT-65"/>
      <use x="544.677734" xlink:href="#ArialMT-74"/>
     </g>
    </g>
    <g id="line2d_32">
     <path d="M 243.373594 250.619531 
L 265.373594 250.619531 
" style="fill:none;stroke:#8de5a1;stroke-linecap:round;stroke-width:1.5;"/>
    </g>
    <g id="line2d_33"/>
    <g id="text_22">
     <!-- Flight -->
     <g style="fill:#262626;" transform="translate(274.173594 254.469531)scale(0.11 -0.11)">
      <use xlink:href="#ArialMT-46"/>
      <use x="61.083984" xlink:href="#ArialMT-6c"/>
      <use x="83.300781" xlink:href="#ArialMT-69"/>
      <use x="105.517578" xlink:href="#ArialMT-67"/>
      <use x="161.132812" xlink:href="#ArialMT-68"/>
      <use x="216.748047" xlink:href="#ArialMT-74"/>
     </g>
    </g>
    <g id="line2d_34">
     <path d="M 243.373594 266.308281 
L 265.373594 266.308281 
" style="fill:none;stroke:#ff9f9b;stroke-linecap:round;stroke-width:1.5;"/>
    </g>
    <g id="line2d_35"/>
    <g id="text_23">
     <!-- Cat -->
     <g style="fill:#262626;" transform="translate(274.173594 270.158281)scale(0.11 -0.11)">
      <use xlink:href="#ArialMT-43"/>
      <use x="72.216797" xlink:href="#ArialMT-61"/>
      <use x="127.832031" xlink:href="#ArialMT-74"/>
     </g>
    </g>
    <g id="line2d_36">
     <path d="M 243.373594 281.868125 
L 265.373594 281.868125 
" style="fill:none;stroke:#d0bbff;stroke-linecap:round;stroke-width:1.5;"/>
    </g>
    <g id="line2d_37"/>
    <g id="text_24">
     <!-- Fog -->
     <g style="fill:#262626;" transform="translate(274.173594 285.718125)scale(0.11 -0.11)">
      <use xlink:href="#ArialMT-46"/>
      <use x="61.083984" xlink:href="#ArialMT-6f"/>
      <use x="116.699219" xlink:href="#ArialMT-67"/>
     </g>
    </g>
    <g id="line2d_38">
     <path d="M 243.373594 297.556875 
L 265.373594 297.556875 
" style="fill:none;stroke:#debb9b;stroke-linecap:round;stroke-width:1.5;"/>
    </g>
    <g id="line2d_39"/>
    <g id="text_25">
     <!-- Beach -->
     <g style="fill:#262626;" transform="translate(274.173594 301.406875)scale(0.11 -0.11)">
      <use xlink:href="#ArialMT-42"/>
      <use x="66.699219" xlink:href="#ArialMT-65"/>
      <use x="122.314453" xlink:href="#ArialMT-61"/>
      <use x="177.929688" xlink:href="#ArialMT-63"/>
      <use x="227.929688" xlink:href="#ArialMT-68"/>
     </g>
    </g>
   </g>
  </g>
 </g>
 <defs>
  <clipPath id="p34be97e1ba">
   <rect height="286.533125" width="288.955" x="58.085" y="26.96"/>
  </clipPath>
 </defs>
</svg>
